<mxfile host="app.diagrams.net" agent="Mozilla/5.0 (Windows NT 10.0; Win64; x64) AppleWebKit/537.36 (KHTML, like Gecko) Chrome/130.0.0.0 Safari/537.36 Edg/130.0.0.0" version="24.8.0">
  <diagram id="p2cSYeBvDeuaQYBL2pUQ" name="infos générales">
    <mxGraphModel dx="983" dy="539" grid="1" gridSize="10" guides="1" tooltips="1" connect="1" arrows="1" fold="1" page="1" pageScale="1" pageWidth="827" pageHeight="1169" math="0" shadow="0">
      <root>
        <mxCell id="0" />
        <mxCell id="1" parent="0" />
        <mxCell id="VrHXVTZJJK4kQPbwEYjZ-1" value="Les métiers" style="swimlane;startSize=20;horizontal=0;childLayout=treeLayout;horizontalTree=1;sortEdges=1;resizable=1;containerType=tree;fontSize=12;expand=1;collapsible=1;resizeHeight=1;resizeWidth=1;" vertex="1" parent="1">
          <mxGeometry x="20" y="120" width="310" height="280" as="geometry">
            <mxRectangle x="20" y="110" width="40" height="90" as="alternateBounds" />
          </mxGeometry>
        </mxCell>
        <mxCell id="VrHXVTZJJK4kQPbwEYjZ-2" value="Récolteur" style="whiteSpace=wrap;html=1;" vertex="1" parent="VrHXVTZJJK4kQPbwEYjZ-1">
          <mxGeometry x="40" y="60" width="100" height="40" as="geometry" />
        </mxCell>
        <mxCell id="VrHXVTZJJK4kQPbwEYjZ-3" value="Fermier" style="whiteSpace=wrap;html=1;" vertex="1" parent="VrHXVTZJJK4kQPbwEYjZ-1">
          <mxGeometry x="190" y="20" width="100" height="40" as="geometry" />
        </mxCell>
        <mxCell id="VrHXVTZJJK4kQPbwEYjZ-4" value="" style="edgeStyle=elbowEdgeStyle;elbow=horizontal;html=1;rounded=1;curved=0;sourcePerimeterSpacing=0;targetPerimeterSpacing=0;startSize=6;endSize=6;" edge="1" parent="VrHXVTZJJK4kQPbwEYjZ-1" source="VrHXVTZJJK4kQPbwEYjZ-2" target="VrHXVTZJJK4kQPbwEYjZ-3">
          <mxGeometry relative="1" as="geometry" />
        </mxCell>
        <mxCell id="VrHXVTZJJK4kQPbwEYjZ-5" value="Mineur" style="whiteSpace=wrap;html=1;" vertex="1" parent="VrHXVTZJJK4kQPbwEYjZ-1">
          <mxGeometry x="190" y="100" width="100" height="40" as="geometry" />
        </mxCell>
        <mxCell id="VrHXVTZJJK4kQPbwEYjZ-6" value="" style="edgeStyle=elbowEdgeStyle;elbow=horizontal;html=1;rounded=1;curved=0;sourcePerimeterSpacing=0;targetPerimeterSpacing=0;startSize=6;endSize=6;" edge="1" parent="VrHXVTZJJK4kQPbwEYjZ-1" source="VrHXVTZJJK4kQPbwEYjZ-2" target="VrHXVTZJJK4kQPbwEYjZ-5">
          <mxGeometry relative="1" as="geometry" />
        </mxCell>
        <mxCell id="VrHXVTZJJK4kQPbwEYjZ-13" style="edgeStyle=orthogonalEdgeStyle;rounded=1;orthogonalLoop=1;jettySize=auto;html=1;entryX=0;entryY=0.5;entryDx=0;entryDy=0;curved=0;" edge="1" parent="VrHXVTZJJK4kQPbwEYjZ-1" source="VrHXVTZJJK4kQPbwEYjZ-9" target="VrHXVTZJJK4kQPbwEYjZ-11">
          <mxGeometry relative="1" as="geometry" />
        </mxCell>
        <mxCell id="VrHXVTZJJK4kQPbwEYjZ-14" style="edgeStyle=orthogonalEdgeStyle;rounded=1;orthogonalLoop=1;jettySize=auto;html=1;entryX=0;entryY=0.5;entryDx=0;entryDy=0;curved=0;" edge="1" parent="VrHXVTZJJK4kQPbwEYjZ-1" source="VrHXVTZJJK4kQPbwEYjZ-9" target="VrHXVTZJJK4kQPbwEYjZ-12">
          <mxGeometry relative="1" as="geometry" />
        </mxCell>
        <mxCell id="VrHXVTZJJK4kQPbwEYjZ-9" value="Coupeur de bois" style="whiteSpace=wrap;html=1;" vertex="1" parent="VrHXVTZJJK4kQPbwEYjZ-1">
          <mxGeometry x="40" y="190" width="100" height="40" as="geometry" />
        </mxCell>
        <mxCell id="VrHXVTZJJK4kQPbwEYjZ-11" value="Charpentier" style="whiteSpace=wrap;html=1;" vertex="1" parent="VrHXVTZJJK4kQPbwEYjZ-1">
          <mxGeometry x="190" y="160" width="100" height="40" as="geometry" />
        </mxCell>
        <mxCell id="VrHXVTZJJK4kQPbwEYjZ-12" value="Charbonnier" style="whiteSpace=wrap;html=1;" vertex="1" parent="VrHXVTZJJK4kQPbwEYjZ-1">
          <mxGeometry x="190" y="220" width="100" height="40" as="geometry" />
        </mxCell>
        <mxCell id="VrHXVTZJJK4kQPbwEYjZ-21" value="Les bâtiments" style="swimlane;childLayout=stackLayout;resizeParent=1;resizeParentMax=0;startSize=20;html=1;" vertex="1" parent="1">
          <mxGeometry x="20.000000000000455" y="430" width="470" height="480" as="geometry" />
        </mxCell>
        <mxCell id="VrHXVTZJJK4kQPbwEYjZ-22" value="bâtiment de vie" style="swimlane;startSize=20;html=1;" vertex="1" parent="VrHXVTZJJK4kQPbwEYjZ-21">
          <mxGeometry y="20" width="130" height="460" as="geometry" />
        </mxCell>
        <mxCell id="VrHXVTZJJK4kQPbwEYjZ-27" value="Maison" style="whiteSpace=wrap;html=1;" vertex="1" parent="VrHXVTZJJK4kQPbwEYjZ-22">
          <mxGeometry x="4.999999999999545" y="30" width="120" height="60" as="geometry" />
        </mxCell>
        <mxCell id="VrHXVTZJJK4kQPbwEYjZ-23" value="Bâtiment de récolte" style="swimlane;startSize=20;html=1;" vertex="1" parent="VrHXVTZJJK4kQPbwEYjZ-21">
          <mxGeometry x="130" y="20" width="140" height="460" as="geometry" />
        </mxCell>
        <mxCell id="VrHXVTZJJK4kQPbwEYjZ-25" value="Ferme" style="whiteSpace=wrap;html=1;" vertex="1" parent="VrHXVTZJJK4kQPbwEYjZ-23">
          <mxGeometry x="9.999999999999545" y="30" width="120" height="60" as="geometry" />
        </mxCell>
        <mxCell id="VrHXVTZJJK4kQPbwEYjZ-26" value="Mine" style="whiteSpace=wrap;html=1;" vertex="1" parent="VrHXVTZJJK4kQPbwEYjZ-23">
          <mxGeometry x="9.999999999999545" y="105" width="120" height="60" as="geometry" />
        </mxCell>
        <mxCell id="VrHXVTZJJK4kQPbwEYjZ-24" value="Bâtiment de production" style="swimlane;startSize=20;html=1;" vertex="1" parent="VrHXVTZJJK4kQPbwEYjZ-21">
          <mxGeometry x="270" y="20" width="200" height="460" as="geometry" />
        </mxCell>
        <mxCell id="VrHXVTZJJK4kQPbwEYjZ-28" value="Scierie" style="whiteSpace=wrap;html=1;" vertex="1" parent="VrHXVTZJJK4kQPbwEYjZ-24">
          <mxGeometry x="10" y="30" width="180" height="60" as="geometry" />
        </mxCell>
        <mxCell id="VrHXVTZJJK4kQPbwEYjZ-29" value="moulin" style="whiteSpace=wrap;html=1;" vertex="1" parent="VrHXVTZJJK4kQPbwEYjZ-24">
          <mxGeometry x="10" y="105" width="180" height="60" as="geometry" />
        </mxCell>
        <mxCell id="VrHXVTZJJK4kQPbwEYjZ-30" value="Forge" style="whiteSpace=wrap;html=1;" vertex="1" parent="VrHXVTZJJK4kQPbwEYjZ-24">
          <mxGeometry x="10" y="180" width="180" height="60" as="geometry" />
        </mxCell>
        <mxCell id="VrHXVTZJJK4kQPbwEYjZ-31" value="Charbonnière" style="whiteSpace=wrap;html=1;" vertex="1" parent="VrHXVTZJJK4kQPbwEYjZ-24">
          <mxGeometry x="10" y="260" width="180" height="60" as="geometry" />
        </mxCell>
      </root>
    </mxGraphModel>
  </diagram>
</mxfile>
